# xmcd
#
# Track frame offsets:
#	150
#	18214
#	36643
#	55751
#	74861
#	96573
#	117436
#	134137
#	147823
#	159871
#	177329
#	195885
#	214686
#	226206
#	247268
#
# Disc length: 3613 seconds
# Revision: 0
# Processed by: cddbd v1.5.2PL0 Copyright (c) Steve Scherf et al.
# Submitted via: dBpowerAMP V12.0
#
DISCID=e20e1b0f
DTITLE=Ernest Troost - Live at McCabe's
DYEAR=2011
DGENRE=Blues
TTITLE0=Resurrection Blues
TTITLE1=Travelin' Shoes
TTITLE2=My Love
TTITLE3=By and By
TTITLE4=Switchblade Heart
TTITLE5=Close
TTITLE6=Bitter Wind
TTITLE7=This Field
TTITLE8=Doubtin' Blues
TTITLE9=O Love
TTITLE10=Storm Comin'
TTITLE11=The Last Lullaby
TTITLE12=Real Music
TTITLE13=Disturbin' Blues
TTITLE14=The Last to Leave
EXTD=
EXTT0=
EXTT1=
EXTT2=
EXTT3=
EXTT4=
EXTT5=
EXTT6=
EXTT7=
EXTT8=
EXTT9=
EXTT10=
EXTT11=
EXTT12=
EXTT13=
EXTT14=
PLAYORDER=
